<?xml version="1.0" encoding="UTF-8"?>
<svg width="500px" height="500px" viewBox="0 0 500 500" version="1.1" xmlns="http://www.w3.org/2000/svg" xmlns:xlink="http://www.w3.org/1999/xlink">
    <!-- Generator: Sketch 64 (93537) - https://sketch.com -->
    <title>R Dark</title>
    <desc>Created with Sketch.</desc>
    <style>
        g {
            fill: #000000;
        }

        @media (prefers-color-scheme: dark) {
            g {
                fill: #ffffff;
            }
        }
    </style>
    <g id="R-Dark" stroke="none" stroke-width="1" fill="none" fill-rule="evenodd">
        <path d="M363.320298,439 C369.693979,439 375.973929,438.439169 382.160149,437.317507 C388.346369,436.195846 394.626319,434.139466 401,431.148368 L397.625698,422.735905 C397.250776,423.109792 396.875854,423.296736 396.500931,423.296736 C393.501552,424.418398 390.502173,425.446588 387.502793,426.381306 C384.503414,427.316024 381.316574,427.783383 377.942272,427.783383 C372.693358,427.783383 368.569212,426.194362 365.569832,423.01632 C362.570453,419.838279 360.320919,415.538576 358.821229,410.117211 C357.321539,404.695846 356.290503,398.339763 355.728119,391.048961 C355.165736,383.75816 354.697083,376 354.32216,367.774481 C353.947238,356.183976 353.197393,343.939169 352.072626,331.040059 C350.947858,318.14095 348.13594,305.896142 343.636872,294.305638 C339.137803,282.715134 332.48293,272.339763 323.672253,263.179525 C314.861577,254.019288 302.582868,247.382789 286.836127,243.27003 L286.836127,237.10089 C296.959032,234.857567 306.519553,231.492582 315.517691,227.005935 C324.515829,222.519288 332.389199,216.817507 339.137803,209.900593 C345.886406,202.98368 351.22905,194.664688 355.165736,184.94362 C359.102421,175.222552 361.070764,163.818991 361.070764,150.732938 C361.070764,133.534125 358.165115,119.232938 352.353818,107.829377 C346.54252,96.425816 339.044072,87.2655786 329.858473,80.3486647 C320.672874,73.4317507 310.081316,68.4777448 298.083799,65.4866469 C286.086282,62.495549 273.901304,61 261.528864,61 L99,61 L99,70.5341246 L129.931099,70.5341246 L129.931099,425.540059 L99,425.540059 L99,435.074184 L226.098696,435.074184 L226.098696,425.540059 L191.793296,425.540059 L191.793296,244.952522 C203.040968,244.952522 213.913718,245.419881 224.411546,246.354599 C234.909373,247.289318 244.376164,249.906528 252.811918,254.206231 C261.247672,258.505935 268.371198,265.142433 274.182495,274.115727 C279.993793,283.089021 283.836747,295.614243 285.711359,311.691395 C286.461204,316.925816 287.023588,321.973294 287.39851,326.833828 C287.773433,331.694362 288.148355,336.367953 288.523277,340.854599 C289.648045,355.436202 291.054004,368.709199 292.741155,380.673591 C294.428305,392.637982 297.802607,402.919881 302.86406,411.519288 C307.925512,420.118694 315.142768,426.848665 324.515829,431.709199 C333.888889,436.569733 346.823712,439 363.320298,439 Z M192,236 L192,71 L208.322404,71 C220.32969,71 231.586521,72.2118644 242.092896,74.6355932 C252.599271,77.059322 261.79235,81.3474576 269.672131,87.5 C277.551913,93.6525424 283.743169,102.135593 288.245902,112.949153 C292.748634,123.762712 295,137.559322 295,154.338983 C295,169.254237 292.56102,181.838983 287.68306,192.09322 C282.8051,202.347458 276.42623,210.737288 268.546448,217.262712 C260.666667,223.788136 251.567395,228.542373 241.248634,231.525424 C230.929872,234.508475 220.517304,236 210.010929,236 L192,236 Z" id="R" fill-rule="nonzero"></path>
    </g>
</svg>